<!-- icon666.com - MILLIONS vector ICONS FREE --><svg id="Layer_1" viewBox="0 0 100 100" xmlns="http://www.w3.org/2000/svg"><path d="m21.728 49.441c-3.88 0-7.037 3.157-7.037 7.037 0 3.879 3.157 7.035 7.037 7.035s7.036-3.156 7.036-7.035-3.157-7.037-7.036-7.037z" fill="#000000" style="fill: rgb(132, 131, 131);"></path><path d="m81.85 49.441c-3.88 0-7.036 3.157-7.036 7.037 0 3.879 3.156 7.035 7.036 7.035s7.036-3.156 7.036-7.035-3.157-7.037-7.036-7.037z" fill="#000000" style="fill: rgb(132, 131, 131);"></path><path d="m12.091 47.831c-.427.064-.859.123-1.302.173-1.738.198-3.668 1.152-5.342 2.188l3.854-.339c.779-.736 1.798-1.432 2.79-2.022z" fill="#000000" style="fill: rgb(132, 131, 131);"></path><path d="m1.976 54.505 5.069.125c.225-.597.428-1.22.614-1.805.151-.475.297-.933.445-1.346.064-.18.161-.36.274-.541l-4.672.412c-.685.484-1.271.932-1.705 1.262-.276.211-.502.384-.668.502-.13.093-.208.184-.214.249-.018.184.316.536.516.747.129.136.247.263.341.395z" fill="#000000" style="fill: rgb(132, 131, 131);"></path><path d="m67.415 50.617c2.73-1.174 4.626-4.027 5.114-6.429-.001-.016-.329-.31-2.424.01.321.145.589.337.742.608.279.495.168 1.082-.329 1.746-1.038 1.385-2.259 2.973-3.103 4.065z" fill="#000000" style="fill: rgb(132, 131, 131);"></path><path d="m4.802 57.373c.769-.043 1.348-.779 1.82-1.753l-4.412-.109c.053.45.101.97.012 1.413.411.203 1.259.514 2.58.449z" fill="#000000" style="fill: rgb(132, 131, 131);"></path><path d="m95.667 50.119c-.53 1.069-1.638 1.626-2.464 1.705-.572.057-1.039-.105-1.294-.456-.033-.046-.091-.136-.171-.264-2.091-3.329-6.623-8.446-13.493-5.348-4.269 1.927-5.105 4.15-5.777 5.937-.473 1.257-.92 2.443-2.454 2.982-2.229.782-18.776 3.695-28.521 3.696-3.232 0-5.714-.32-6.68-1.146-1.442-1.23-2.226-2.468-2.798-3.371-.821-1.295-1.136-1.771-2.392-1.32 1.019 2.921.672 6.361.467 7.733h43.094c-.428-1.316-1.108-4.267.156-7.129 1.06-2.398 3.232-4.16 6.459-5.236 3.627-1.21 6.666-.348 8.655 2.413 2.01 2.79 2.544 7.041 2.221 8.798.98-.617 2.964-2.382 3.797-3.123.389-.346.699-.621.872-.764.981-.804 1.683-1.769 2.237-2.919-.705-1.077-1.549-2.046-1.914-2.188z" fill="#000000" style="fill: rgb(132, 131, 131);"></path><path d="m15.09 50.849c1.535-1.999 4-3.012 7.324-3.012.388 0 .793.014 1.214.042 1.119.075 2.103.356 2.954.825l1.74-2.936c-.3.005-.576.008-.798.008-.311 0-.536-.006-.668-.017-.538-.045-1.351-.112-1.426-.721-.086-.702.729-1.006 4.191-2.179l.551-.187c.391-.133.886-.305 1.462-.505 4.667-1.619 14.379-4.989 18.809-5.072l.251-.002c3.015 0 20.333 1.886 20.669 4.171v.003c3.457-.176 13.949-.46 18.345 2.2 2.188 1.323 6.339.104 7.081-.811.24-.762.515-1.453.773-1.947-.135-.019-.343-.034-.657-.034-.854 0-2.126.112-3.598.243-2.108.188-4.733.42-7.292.42-1.047 0-2.025-.039-2.909-.117-2.112-.188-4.353-.812-6.946-1.534-5.122-1.427-11.497-3.202-21.555-3.202-2.381 0-4.887.104-7.449.308-4.656.371-20.38 5.83-24.856 7.822-2.486 1.107-4.54 1.876-6.514 2.424-1.663.736-6.117 3.028-6.743 4.777-.143.404-.284.85-.431 1.312-.764 2.402-1.629 5.124-3.754 5.243-.152.009-.3.013-.443.013-1.397 0-2.311-.38-2.767-.632-.175.088-.368.137-.558.129-.025.118-.057.341-.077.752.472.785 6.793 1.429 12.616 1.577-.332-1.679-.937-6.24 1.461-9.361z" fill="#000000" style="fill: rgb(132, 131, 131);"></path><path d="m58.944 42.92c.157-1.035.284-2.999-.307-4.096-.287-.04-.573-.078-.857-.116.353 1.436-.213 3.313-.613 4.371.604-.053 1.195-.105 1.777-.159z" fill="#000000" style="fill: rgb(132, 131, 131);"></path><path d="m32.859 53.32c.568.897 1.275 2.014 2.603 3.146 1.84 1.57 11.482.85 20.107-.275 2.081-.287 3.571-4.529 4.454-8.338-2.797.566-12.642 2.554-15.158 2.967-1.034.17-3.198.406-5.139.406-1.546 0-2.951-.15-3.531-.604-.279-.218-.354-.469-.368-.642-.018-.221.028-.557.345-.9 1.012-1.098 4.168-1.597 6.673-1.597 2.385 0 15.486-2.136 17.757-2.509.075-.439.141-.852.192-1.222-10.213 1.014-25.124 1.813-31.292 1.986l-2.084 3.518c.387.309.741.663 1.054 1.072.307.401.564.836.782 1.292 2.043-.713 2.75.352 3.605 1.7z" fill="#000000" style="fill: rgb(132, 131, 131);"></path><path d="m50.464 38.097c-4.271.08-13.882 3.415-18.5 5.018-.579.2-1.075.373-1.468.507l-.552.187c-.969.328-2.017.684-2.736.967.091.002.197.002.318.002 3.451 0 17.383-.678 28.524-1.604.469-1.109 1.213-3.439.604-4.607-2.368-.287-4.526-.471-5.958-.471z" fill="#000000" style="fill: rgb(132, 131, 131);"></path><path d="m98.81 48.063c-.402.225-.857.48-1.321.48-.275 0-.777-.098-1.054-.754-.395-.938-.315-2.327-.032-3.68-1.087.535-2.651.937-4.179.937-1.103 0-2.181-.208-3.032-.723-4.744-2.871-17.764-2.065-18.796-1.997-.054.018-.102.031-.139.043-1.464.441-4.552.876-8.438 1.28-.054.395-.141.989-.266 1.715 1.123-.357 3.248-1.01 5.348-1.526 4.747-1.168 5.882-.81 6.34-.369.245.235.341.562.269.918-.582 2.858-2.959 6.329-6.377 7.429-2.694.867-6.704 1.438-7.817 1.585-.437.967-.938 1.827-1.508 2.485 5.758-.811 10.674-1.732 11.874-2.154 1.095-.385 1.396-1.183 1.85-2.392.699-1.855 1.655-4.397 6.302-6.495 5.606-2.529 10.845-.497 14.752 5.728.063.1.106.171.133.207.019.019.168.091.498.034.533-.089 1.246-.484 1.552-1.139.219-.471.583-.561.779-.572.017-.001.033-.002.049-.002.797 0 1.78 1.162 2.45 2.106.31-.823.578-1.724.831-2.722.058-.227.091-.396.11-.522-.062.035-.125.07-.178.1z" fill="#000000" style="fill: rgb(132, 131, 131);"></path><path d="m36.907 49.759c-.064.07-.085.12-.083.143.402.409 4.389.504 7.878-.067 2.653-.436 13.566-2.645 15.557-3.048.055-.262.104-.515.152-.767-3.073.505-15.179 2.465-17.566 2.465-2.981-.001-5.36.647-5.938 1.274z" fill="#000000" style="fill: rgb(132, 131, 131);"></path><path d="m69.968 41.413c.102-.031.182-.06.244-.085-1.077-.686-5.732-1.643-10.418-2.338.41 1.301.291 2.938.174 3.834 4.645-.443 8.392-.927 10-1.411z" fill="#000000" style="fill: rgb(132, 131, 131);"></path><path d="m66.852 44.882c-2.364.596-4.702 1.339-5.502 1.599-.341 1.749-.856 3.919-1.591 5.85 1.301-.187 3.84-.588 5.947-1.142.469-.603 2.451-3.155 4.012-5.235.222-.295.32-.546.259-.655-.228-.404-1.825-.543-3.125-.417z" fill="#000000" style="fill: rgb(132, 131, 131);"></path></svg>