<!-- icon666.com - MILLIONS vector ICONS FREE --><svg xmlns="http://www.w3.org/2000/svg" xmlns:xlink="http://www.w3.org/1999/xlink" version="1.1" id="Capa_1" x="0px" y="0px" viewBox="0 0 512 512" style="enable-background:new 0 0 512 512;" xml:space="preserve"><g><polygon points="61.915,460.505 23.336,460.505 23.336,426.536 6.253,426.536 6.253,510.742 23.336,510.742 23.336,476.544 61.915,476.544 61.915,510.742 78.998,510.742 78.998,426.536 61.915,426.536 " fill="#000000" style="fill: rgb(132, 131, 131);"></polygon><path d="M158.158,474.735c0,13.689-6.796,20.999-19.139,20.999c-12.416,0-19.253-7.522-19.253-21.578v-47.569h-17.083v48.148 c0,23.683,13.159,37.265,36.107,37.265c23.169,0,36.45-13.836,36.45-37.967v-47.495h-17.083V474.735z" fill="#000000" style="fill: rgb(132, 131, 131);"></path><polygon points="355.617,484.438 336.495,426.517 322.553,426.517 303.439,484.438 284.839,426.574 266.654,426.574 295.999,510.748 310.145,510.748 329.291,455.445 348.438,510.748 362.706,510.748 391.977,426.574 374.258,426.574 " fill="#000000" style="fill: rgb(132, 131, 131);"></polygon><polygon points="422.605,474.504 453.687,474.504 453.687,459.167 422.605,459.167 422.605,441.929 467.71,441.929 467.71,426.592 405.751,426.592 405.751,510.692 469.342,510.692 469.342,495.355 422.605,495.355 " fill="#000000" style="fill: rgb(132, 131, 131);"></polygon><rect x="489.708" y="426.53" width="16.854" height="84.1" fill="#000000" style="fill: rgb(132, 131, 131);"></rect><path d="M247.546,493.164l7.562,17.523h17.907l-36.947-84.149H221l-37.102,84.149h17.442l7.677-17.523H247.546z M228.237,447.839 l12.955,30.144h-25.828L228.237,447.839z" fill="#000000" style="fill: rgb(132, 131, 131);"></path><path d="M470.338,149.502c2.782-43.115-40.618-83.015-40.618-83.015S349.258,163.95,290.61,291.964 c-0.302,0.669-0.416,1.787,0.277,2.382c0.473,0.392,1.354,0.669,2.252,0.22c21.977-10.907,113.363-57.97,151.852-94.689 C444.991,199.878,469.065,180.535,470.338,149.502 M367.76,52.227c0,0-10.067-37.567-50.881-47.487c0,0-11.756-2.986-24.245-4.74 c0,0-45.627,58.737-23.446,280.372c0.106,1.158,0.742,1.574,1.264,1.721c0.84,0.22,1.632-0.082,2.178-0.865 c14.627-21.137,81.335-120.028,94.885-180.168C367.515,101.06,374.857,71.953,367.76,52.227 M305.213,325.885 c-0.245,0.481-0.457,1.68,0.465,2.349c14.733,10.565,59.414,41.809,80.943,47.871c0,0,39.803,13.567,74.376-45.823 c0,0-115.688-4.03-154.16-5.368C306.306,324.89,305.523,325.265,305.213,325.885 M501.983,194.134 c0,0-130.886,70.289-198.548,115.883c-0.498,0.334-1.126,0.995-0.791,2.203c0.179,0.644,0.783,1.216,1.599,1.216 c24.221,0.041,115.941,0.155,118.249-0.277c0,0,11.853-0.465,26.513-6.094c0,0,32.616-10.369,49.56-47.414 C498.564,259.651,513.673,229.434,501.983,194.134 M208.419,310.018C140.765,264.423,9.879,194.134,9.879,194.134 c-11.698,35.299,3.41,65.516,3.41,65.516c16.944,37.045,49.56,47.414,49.56,47.414c14.66,5.629,26.513,6.094,26.513,6.094 c2.309,0.432,94.028,0.318,118.249,0.277c0.816,0,1.42-0.571,1.599-1.216C209.545,311.013,208.917,310.352,208.419,310.018 M205.017,324.914c-38.465,1.338-154.16,5.368-154.16,5.368c34.573,59.39,74.376,45.823,74.376,45.823 c21.529-6.061,66.21-37.306,80.943-47.871c0.93-0.669,0.71-1.868,0.465-2.349C206.331,325.265,205.548,324.89,205.017,324.914 M194.975,4.74c-40.814,9.92-50.881,47.487-50.881,47.487c-7.097,19.726,0.245,48.833,0.245,48.833 c13.55,60.14,80.258,159.031,94.885,180.168c0.547,0.783,1.346,1.085,2.178,0.865c0.53-0.147,1.158-0.563,1.273-1.721 C264.848,58.737,219.22,0,219.22,0C206.73,1.754,194.975,4.74,194.975,4.74 M82.134,66.487c0,0-43.392,39.901-40.618,83.015 c1.272,31.033,25.338,50.375,25.338,50.375c38.505,36.719,129.882,83.782,151.86,94.689c0.906,0.449,1.77,0.171,2.252-0.22 c0.702-0.596,0.579-1.713,0.277-2.382C162.596,163.95,82.134,66.487,82.134,66.487" fill="#000000" style="fill: rgb(132, 131, 131);"></path></g></svg>