<!-- icon666.com - MILLIONS vector ICONS FREE --><svg id="Capa_1" enable-background="new 0 0 512 512" viewBox="0 0 512 512" xmlns="http://www.w3.org/2000/svg"><g><circle cx="256" cy="256" r="256" fill="#000000" style="fill: rgb(132, 131, 131);"></circle><g clip-rule="evenodd" fill="#fff" fill-rule="evenodd"><path d="m68.173 230.135h-7.899v56.53h51.067v-6.17h-43.168z" fill="#fff"></path><path d="m96.81 250.131h5.856l10.634-19.996h-8.558z" fill="#fff"></path><path d="m155.78 220.57c-22.91 0-38.527 16.16-38.527 35.729 0 20.597 17.253 35.131 38.527 35.131 21.272 0 38.515-14.326 38.515-35.131-.001-19.569-15.812-35.729-38.515-35.729zm-.271 63.848c-15.855 0-28.917-12.747-28.917-28.102 0-15.339 12.449-28.695 29.528-28.695 16.664 0 28.908 13.354 28.908 28.695.002 15.356-13.671 28.102-29.519 28.102z" fill="#fff"></path><path d="m259.966 246.494c-.775-10.099-7.572-16.359-19.799-16.359h-35.604v56.53h8.119v-23.708h23.176l17.052 23.708h10.23c.004 0-12.262-15.957-17.313-23.632 12.939-3.457 14.201-13.101 14.139-16.539zm-47.281 9.777v-19.441h27.3c6.281 0 9.818 2.935 11.092 6.661.841 2.559.3 5.915-1.088 8.197-2.283 3.783-6.617 4.583-10.928 4.583z" fill="#fff"></path><path d="m356.487 230.135-28.724 56.53h9.708l7.352-14.631h34.45l7.414 14.631h9.609l-28.749-56.53zm-8.03 34.824 13.535-27.006 13.702 27.006z" fill="#fff"></path><path d="m408.559 280.495v-50.36h-7.9v56.53h51.067v-6.17z" fill="#fff"></path><path d="m299.49 221.007-6.843 7.686 21.471-7.686z" fill="#fff"></path><path d="m273.235 286.665h50.518v-6.17h-41.85v-19.758h31.432v-6.251h-31.432v-18.193h41.85v-6.158h-50.518z" fill="#fff"></path></g></g></svg>