<!-- icon666.com - MILLIONS vector ICONS FREE --><svg viewBox="-21 -21 682.66669 682.66669" xmlns="http://www.w3.org/2000/svg"><path d="m380.160156 388.492188c-11.417968 11.699218-21.367187 24.296874-53.171875 5.644531-30.824219-18.078125-82.628906-66.589844-90.25-106.667969 0-20.339844 17.1875-26.851562 22.566407-35.160156-3.019532-6.742188-12.683594-24.378906-30.8125-58.746094-5.59375 5.40625-21.78125 21.945312-37.835938 38.019531-5.273438 5.011719-2.730469 20.023438-1.167969 27.152344 16.027344 73.09375 99.890625 156.535156 164.457031 183.328125 12.417969 5.15625 46.28125 16.5 54.679688 7.667969 19.714844-19.582031 31.921875-31.179688 38.46875-38.027344-26.253906-15.527344-57.019531-33.710937-57.019531-33.710937zm0 0" fill="#000000" style="fill: rgb(21, 23, 24);"></path><path d="m546.273438 93.726562c-60.4375-60.441406-140.800782-93.726562-226.273438-93.726562s-165.835938 33.285156-226.273438 93.726562c-60.441406 60.4375-93.726562 140.800782-93.726562 226.273438s33.285156 165.835938 93.726562 226.273438c60.4375 60.441406 140.800782 93.726562 226.273438 93.726562s165.835938-33.285156 226.273438-93.726562c60.441406-60.4375 93.726562-140.800782 93.726562-226.273438s-33.285156-165.835938-93.726562-226.273438zm-88.914063 360.644532c-25.800781 25.253906-31.738281 35.949218-60.117187 35.949218-128.140626.011719-300.414063-222.996093-232.820313-285.539062 28.742187-28.773438 38.058594-38.847656 44.90625-44.40625 15.476563-12.558594 36.929687-9.492188 48.96875 9.4375 1.800781 3.113281-1.660156-3.09375 19.160156 36.050781 20.136719 37.863281 32.621094 51.777344-1.480469 82.777344 10.671876 25.078125 51.890626 64.921875 75.125 75.933594 8.875-9.074219 28.511719-36.199219 61.054688-17.105469 58.566406 34.359375 70.859375 37.839844 74.738281 57.226562 3.027344 18.371094-4.285156 24.96875-29.535156 49.675782zm0 0" fill="#000000" style="fill: rgb(21, 23, 24);"></path></svg>